<svg xmlns="http://www.w3.org/2000/svg" fill="none" viewBox="0 0 24 25" class="h-svgo-icon" style="fill:var(--primary--800);color:var(--primary--800);" data-v-85453436="" data-v-adc70120=""><path fill="currentColor" d="M7.612 13.707a4.125 4.125 0 1 1 8.25 0 4.125 4.125 0 0 1-8.25 0Z"></path><path fill="currentColor" fill-rule="evenodd" d="M7.498 2.457a6 6 0 0 0-6 6v9a6 6 0 0 0 6 6h9a6 6 0 0 0 6-6v-9a6 6 0 0 0-6-6h-9Zm10.539 5.7a1.5 1.5 0 1 0 0-3 1.5 1.5 0 0 0 0 3Zm-6.3-.825a6.375 6.375 0 1 0 0 12.75 6.375 6.375 0 0 0 0-12.75Z" clip-rule="evenodd"></path></svg>