<svg xmlns="http://www.w3.org/2000/svg" fill="none" viewBox="0 0 24 25" class="h-svgo-icon" style="fill:var(--primary--800);color:var(--primary--800);" data-v-85453436="" data-v-adc70120=""><path fill="currentColor" fill-rule="evenodd" d="M7.498 2.13a6 6 0 0 0-6 6v9a6 6 0 0 0 6 6h9a6 6 0 0 0 6-6v-9a6 6 0 0 0-6-6h-9Zm.803 8.238h1.696V8.454c0-1.714.902-2.61 2.936-2.61h2.153v2.828h-1.631c-.522 0-.63.214-.63.754v.942h2.26l-.202 2.262h-2.059v6.785H9.997V12.63H8.301v-2.262Z" clip-rule="evenodd"></path></svg>