<svg
  xmlns="http://www.w3.org/2000/svg"
  fill="none"
  viewBox="0 0 16 16"
  class="h-svgo-icon h-svgo-icon--small"
  style="fill: #2f1c6a; color: #2f1c6a"
  data-v-2d4373fa=""
  data-v-03dae1ca="">
  <path
    fill="currentColor"
    d="M7.02 6.487c0-.541.44-.98.98-.98h.128c.47 0 .851.382.851.852a.735.735 0 0 1-.054.265.492.492 0 0 1-.052.097.158.158 0 0 1-.026.03l-.59.442C7.69 7.62 7.25 8.24 7.25 9.081a.75.75 0 0 0 1.5 0c0-.247.106-.461.408-.688l.589-.442c.533-.4.732-1.093.732-1.592a2.351 2.351 0 0 0-2.35-2.352H8a2.48 2.48 0 0 0-2.48 2.48.75.75 0 0 0 1.5 0ZM7.992 10.493a.75.75 0 0 0 0 1.5H8a.75.75 0 0 0 0-1.5h-.008Z">
  </path>
  <path
    fill="currentColor"
    fill-rule="evenodd"
    d="M15 8A7 7 0 1 1 1 8a7 7 0 0 1 14 0Zm-1.5 0a5.5 5.5 0 1 1-11 0 5.5 5.5 0 0 1 11 0Z"
    clip-rule="evenodd">
  </path>
</svg>