<svg xmlns="http://www.w3.org/2000/svg" fill="none" viewBox="0 0 24 25" class="h-svgo-icon" style="fill:var(--primary--800);color:var(--primary--800);" data-v-85453436="" data-v-adc70120="" ><path fill="currentColor" fill-rule="evenodd" d="M7.498 1.993a6 6 0 0 0-6 6v9a6 6 0 0 0 6 6h9a6 6 0 0 0 6-6v-9a6 6 0 0 0-6-6h-9Zm-.457 7.109c.715 0 1.294-.584 1.294-1.305a1.3 1.3 0 0 0-1.294-1.304 1.3 1.3 0 0 0-1.294 1.304c0 .721.58 1.305 1.294 1.305Zm-1.304 9.392v-8.349h2.608v8.349H5.737Zm4.181-8.349h2.592v1.125c1.094-2.024 5.749-2.174 5.749 1.938v5.286h-2.603V14.11c0-2.636-3.145-2.436-3.145 0v4.383H9.918v-8.349Z" clip-rule="evenodd"></path></svg>