<svg xmlns="http://www.w3.org/2000/svg" fill="none" viewBox="0 0 24 25" class="h-svgo-icon" style="fill:var(--primary--800);color:var(--primary--800);" data-v-85453436="" data-v-adc70120=""><path fill="currentColor" d="m14.33 12.174-3.783-2.228v4.447l3.782-2.22Z"></path><path fill="currentColor" fill-rule="evenodd" d="M7.498 1.67a6 6 0 0 0-6 6v9a6 6 0 0 0 6 6h9a6 6 0 0 0 6-6v-9a6 6 0 0 0-6-6h-9Zm-1.19 5.608c1.14-.303 5.685-.303 5.685-.303s4.555 0 5.696.321c.62.165 1.114.67 1.275 1.302.315 1.164.306 3.585.306 3.585s0 2.412-.306 3.567a1.827 1.827 0 0 1-1.275 1.31c-1.141.303-5.696.303-5.696.303s-4.536 0-5.686-.311a1.87 1.87 0 0 1-1.284-1.311c-.297-1.146-.297-3.567-.297-3.567s0-2.412.297-3.576a1.9 1.9 0 0 1 1.284-1.32Z" clip-rule="evenodd"></path></svg>