<svg xmlns="http://www.w3.org/2000/svg" fill="none" viewBox="0 0 24 25" class="h-svgo-icon" style="fill:var(--primary--800);color:var(--primary--800);" data-v-85453436="" data-v-adc70120=""><path fill="currentColor" d="M16.21 17.726h-1.123l-7.33-9.627h1.205l7.248 9.627Z"></path><path fill="currentColor" fill-rule="evenodd" d="M7.498 2.444a6 6 0 0 0-6 6v9a6 6 0 0 0 6 6h9a6 6 0 0 0 6-6v-9a6 6 0 0 0-6-6h-9Zm10.326 4.5h-2.026l-3.34 3.834-2.886-3.834H5.39l4.995 6.563-4.734 5.437h2.027l3.655-4.195 3.193 4.195h4.078l-5.207-6.917 4.426-5.083Z" clip-rule="evenodd"></path></svg>